# xmcd CD database file
#
# Track frame offsets:
#	150
#	23914
#	80624
#	115180
#	150455
#	180571
#	221451
#
# Disc length: 3386 seconds
#
# Revision: 0
# Processed by: cddbd v1.5.1PL0 Copyright (c) Steve Scherf et al.
# Submitted via: CDex 1.51
#
DISCID=4f0d3807
DTITLE=Charlie Parker - Big Bird Bebop (2|2)
DYEAR=1900
DGENRE=Jazz
TTITLE0=Charlie Parker - Scrapple From The Apple
TTITLE1=Charlie Parker - Out Of Nowhere - Now's The Time
TTITLE2=Charlie Parker - Salt Peanuts
TTITLE3=Charlie Parker - All The Things You Are
TTITLE4=Charlie Parker - Wee
TTITLE5=Charlie Parker - Hot House
TTITLE6=Charlie Parker - A Night In Tunesia
EXTD=
EXTT0=
EXTT1=
EXTT2=
EXTT3=
EXTT4=
EXTT5=
EXTT6=
PLAYORDER=
